<svg xmlns="http://www.w3.org/2000/svg" viewBox="0 0 181.4 197.13"><defs><style>.cls-1{fill:#4d9ac7;}.cls-2{fill:#311686;}</style></defs><g id="Capa_3" data-name="Capa 3"><path class="cls-1" d="M116.5,67.52c-10.42,0-18.39-3-25.14-9.53-6.74,6.56-14.72,9.53-25.13,9.53,0,17.08-3.53,41.55,25.13,51.49C120,109.07,116.5,84.6,116.5,67.52ZM82.73,88.25c-.26,1.87-.81,2.93-2.76,1.19s-3.83-3.1-5.88-4.74C79.71,82.69,83.3,84.27,82.73,88.25Zm20.34.13c-.9.52-1.76,2.92-3.09.72a3,3,0,0,1,.87-4.39c2.28-1.41,4.69-1.41,7.79-.23C106.42,86.07,104.83,87.38,103.07,88.38Z"/><path class="cls-2" d="M65.84,99c-16.3,4.11-28.47,12.64-28.74,22.53,7.57-5.77,20.17-10.13,35.19-11.94C68.89,106.41,67.44,102.82,65.84,99Z"/><path class="cls-2" d="M110.52,109.38c14.6,1.53,27.06,5.44,35.1,10.75-1.24-9.34-13.2-17.3-28.85-21.19C115.2,102.7,113.82,106.24,110.52,109.38Z"/><path class="cls-2" d="M63.87,67.32c-4.67-1.77-5.39-5.61-6.3-10C56.3,51.1,56,44.85,55.11,38.54c-4,16.73-2.42,33.73-2.66,50.69A75.61,75.61,0,0,0,56.51,79c.74-2.15,2-3.2,4.44-1.61,1.24.81,2.12,1,2.78.72"/><path class="cls-2" d="M93.2,56.14l-2-28.47-2,28.66c.72-.59,1.42-1.21,2.11-1.89C91.94,55,92.56,55.6,93.2,56.14Z"/><path d="M49.43,139.29v-4A2.26,2.26,0,0,0,47.18,133H41a2.26,2.26,0,0,0-2.26,2.26v8.43H49.43v5.39H38.75v10.77H33.32V132.89a5.28,5.28,0,0,1,5.25-5.29h11a5.28,5.28,0,0,1,5.25,5.29v6.4Z"/><path d="M66.38,133H61V127.6h5.39Zm0,26.85H61v-21.5h5.39Z"/><path d="M88.67,138.37v-3.18a2.26,2.26,0,0,0-2.26-2.25H80.24A2.26,2.26,0,0,0,78,135.19v.7a4.19,4.19,0,0,0,2.49,3.82l11.1,4.83a4.08,4.08,0,0,1,2.48,3.78v6.26a5.24,5.24,0,0,1-5.25,5.25h-11a5.28,5.28,0,0,1-5.29-5.25v-6.45H78v4.1a2.26,2.26,0,0,0,2.26,2.26h6.17a2.26,2.26,0,0,0,2.26-2.26v-.46A4.06,4.06,0,0,0,86.18,148L75,143.16a4.13,4.13,0,0,1-2.49-3.82v-6.49a5.28,5.28,0,0,1,5.29-5.25h11a5.24,5.24,0,0,1,5.25,5.25v5.52Z"/><path d="M121.64,127.6v32.23H116.3v-11.7H105.52v11.7h-5.3V127.6h5.3v15.19H116.3V127.6Z"/><path d="M149.5,127.46v27.08a5.27,5.27,0,0,1-5.3,5.29h-11a5.25,5.25,0,0,1-5.25-5.29v-2.72h5.38v.37a2.32,2.32,0,0,0,2.31,2.3h6.17a2.3,2.3,0,0,0,2.25-2.3v-4.06H133.2a5.28,5.28,0,0,1-5.3-5.24V127.6h5.43v12.89a2.31,2.31,0,0,0,2.26,2.3h8.47V127.46Z"/></g></svg>